<svg width="271" height="43" viewBox="0 0 271 43" fill="none" xmlns="http://www.w3.org/2000/svg">
<path d="M11.8343 32.9946C9.09148 32.9946 6.65681 32.6533 4.53033 31.9708C2.40385 31.3193 0.970785 30.2644 0.231139 28.8063C0.0770464 28.496 0 28.2944 0 28.2013C0 28.1392 0.0308186 28.1082 0.0924557 28.1082C0.21573 28.1082 0.43146 28.2168 0.739646 28.434C1.91075 29.2406 3.40545 29.768 5.22375 30.0162C7.04204 30.2644 8.86034 30.3885 10.6786 30.3885C12.4353 30.3885 14.3306 30.2334 16.3647 29.9232C18.4295 29.6129 20.4944 29.1631 22.5592 28.5736C24.6549 27.9531 26.6889 27.1775 28.6613 26.2468C30.6337 25.316 32.4365 24.2302 34.0699 22.9892C36.6279 21.0346 38.4924 19.1421 39.6635 17.3117C40.8346 15.4812 41.4202 13.7594 41.4202 12.1461C41.4202 10.3777 40.773 8.81097 39.4786 7.44589C38.1842 6.08081 36.3813 5.02597 34.0699 4.28139C31.7894 3.50577 29.1081 3.11796 26.0263 3.11796C24.9168 3.11796 23.7765 3.1645 22.6054 3.25758C20.633 3.44372 18.6606 3.78499 16.6883 4.28139C14.7467 4.74675 12.8822 5.33622 11.0947 6.04978C9.33803 6.76335 7.76628 7.53896 6.37944 8.37662C4.99261 9.21428 3.89855 10.083 3.09727 10.9827C2.3268 11.8514 1.94157 12.7045 1.94157 13.5422C1.94157 14.0696 2.12648 14.597 2.4963 15.1245C2.58876 15.2175 2.63499 15.3416 2.63499 15.4968C2.63499 15.6209 2.58876 15.7139 2.4963 15.776C2.40385 15.807 2.28057 15.7605 2.12648 15.6364C1.84911 15.3261 1.58716 14.8452 1.34061 14.1937C1.09406 13.5112 0.970785 12.7511 0.970785 11.9134C0.970785 11.0758 1.1557 10.2071 1.52552 9.30736C1.92616 8.37662 2.61958 7.52345 3.60577 6.74784C4.77688 5.8171 6.22535 4.94841 7.95119 4.14177C9.67703 3.30411 11.557 2.57504 13.591 1.95455C15.6558 1.33405 17.7669 0.853173 19.9242 0.511904C22.1123 0.170635 24.2696 0 26.3961 0C30.0635 0 33.0683 0.558441 35.4105 1.67532C37.7836 2.76118 39.5402 4.21933 40.6805 6.04978C41.8208 7.84921 42.3909 9.83478 42.3909 12.0065C42.3909 13.9921 41.9133 16.0242 40.9579 18.1028C40.0333 20.1815 38.6619 22.1515 36.8436 24.013C35.0561 25.8745 32.8372 27.4877 30.1868 28.8528C28.4918 29.6905 26.6118 30.4196 24.547 31.04C22.4822 31.6605 20.3557 32.1414 18.1675 32.4827C15.9794 32.824 13.8684 32.9946 11.8343 32.9946ZM7.16532 26.7121C6.94959 26.7121 6.84172 26.4949 6.84172 26.0606C6.84172 25.6263 7.07286 24.9127 7.53514 23.9199C8.02824 22.9271 8.67543 21.7792 9.47671 20.4762C10.278 19.1732 11.1563 17.8081 12.1117 16.381C13.0979 14.9228 14.0841 13.5112 15.0703 12.1461C16.0565 10.75 16.981 9.4935 17.844 8.37662C18.7069 7.22871 19.4311 6.329 20.0167 5.67749C20.633 4.99495 21.0183 4.65368 21.1724 4.65368H21.5884C21.9274 4.65368 22.0969 4.73124 22.0969 4.88636C22.0969 5.04148 21.9736 5.24314 21.7271 5.49134C20.6793 6.63925 19.5698 7.94228 18.3987 9.40043C17.2584 10.8586 16.1181 12.3943 14.9778 14.0076C13.8375 15.5898 12.7589 17.1566 11.7419 18.7078C10.7557 20.259 9.89276 21.7017 9.15312 23.0357C8.41347 24.3698 7.87415 25.4867 7.53514 26.3864C7.44269 26.6035 7.31941 26.7121 7.16532 26.7121Z" fill="white"/>
<path d="M43.1663 30.6212C42.211 30.6212 41.4713 30.3265 40.9474 29.737C40.4235 29.1165 40.1615 28.3254 40.1615 27.3636C40.1615 26.4639 40.3927 25.4711 40.855 24.3853C41.3481 23.2994 42.1185 22.1981 43.1663 21.0812C44.245 19.9022 45.5856 18.956 47.1882 18.2424C48.7907 17.4978 50.3163 17.1255 51.7647 17.1255C52.9358 17.1255 53.9374 17.3892 54.7695 17.9167C55.6016 18.4131 56.1564 19.0491 56.4337 19.8247C56.7727 19.8247 57.1888 19.9177 57.6819 20.1039C58.2058 20.29 58.4678 20.6313 58.4678 21.1277C58.4678 21.469 58.2983 21.8568 57.9593 22.2911C57.7435 22.6014 57.3583 23.0667 56.8036 23.6872C56.2796 24.3077 55.7866 24.9747 55.3243 25.6883C54.9544 26.2468 54.6617 26.7742 54.4459 27.2706C54.2302 27.7359 54.1223 28.1392 54.1223 28.4805C54.1223 28.9459 54.3535 29.1786 54.8158 29.1786C55.3397 29.1786 56.1256 28.8838 57.1734 28.2944C58.3137 27.6429 59.4077 26.8983 60.4556 26.0606C61.5034 25.2229 62.3201 24.5559 62.9056 24.0595C63.0597 23.9354 63.1676 23.8734 63.2292 23.8734C63.3525 23.8734 63.4142 23.9509 63.4142 24.1061C63.4142 24.2922 63.3371 24.4628 63.183 24.618C62.9056 24.8662 62.3663 25.3315 61.565 26.0141C60.7638 26.6966 59.8392 27.4102 58.7914 28.1548C57.7744 28.8994 56.7727 29.5043 55.7865 29.9697C55.2935 30.1869 54.8312 30.3575 54.3997 30.4816C53.9991 30.5747 53.6292 30.6212 53.2902 30.6212C52.4581 30.6212 51.8264 30.3885 51.3949 29.9232C50.9634 29.4268 50.7477 28.7908 50.7477 28.0152C50.7477 27.7049 50.7939 27.3791 50.8864 27.0379C50.9789 26.6966 51.0867 26.3553 51.21 26.0141L51.5336 25.2229C50.7323 26.2157 49.931 27.0534 49.1297 27.7359C48.3285 28.3874 47.5272 28.9614 46.7259 29.4578C46.0479 29.8611 45.4007 30.1558 44.7843 30.342C44.1988 30.5281 43.6594 30.6212 43.1663 30.6212ZM44.5994 29.4113C45.1541 29.4113 45.9554 29.0855 47.0033 28.434C48.0511 27.7514 49.2684 26.7121 50.6553 25.316C50.8402 25.1299 51.1792 24.8041 51.6723 24.3387C52.1962 23.8424 52.7509 23.2994 53.3365 22.71C53.922 22.0895 54.4151 21.4845 54.8158 20.895C55.2472 20.2745 55.463 19.7626 55.463 19.3593C55.463 18.7698 54.9544 18.4751 53.9374 18.4751C53.0437 18.4751 51.965 18.8319 50.7015 19.5455C49.4687 20.228 48.2822 21.2518 47.1419 22.6169C45.9708 24.013 45.1079 25.2229 44.5532 26.2468C44.0293 27.2395 43.7673 27.9996 43.7673 28.5271C43.7673 29.1165 44.0447 29.4113 44.5994 29.4113Z" fill="white"/>
<path d="M67.047 31.3658C66.0608 31.3658 65.3058 31.0711 64.7818 30.4816C64.2579 29.8921 63.996 29.07 63.996 28.0152C63.996 27.0224 64.2579 25.8589 64.7818 24.5249L64.8743 24.2922L64.0422 25.0833C63.9189 25.2074 63.7802 25.2695 63.6261 25.2695C63.4721 25.2695 63.395 25.2074 63.395 25.0833C63.395 24.9282 63.5029 24.7421 63.7186 24.5249C64.5199 23.8113 65.3366 23.0667 66.1687 22.2911C67.0316 21.4845 67.7558 20.7244 68.3414 20.0108C68.1257 20.1039 67.8945 20.1504 67.648 20.1504C67.4014 20.1504 67.2165 20.0884 67.0932 19.9643C66.8775 19.8092 66.7696 19.5299 66.7696 19.1266C66.7696 18.7854 66.9237 18.4286 67.2319 18.0563C67.5709 17.684 68.2489 17.3582 69.2659 17.079C69.4817 17.017 69.6974 16.9704 69.9131 16.9394C70.1597 16.9084 70.3908 16.8773 70.6066 16.8463C71.5927 15.4502 72.4557 14.1627 73.1953 12.9838C73.935 11.7738 74.5205 10.9672 74.952 10.5639C75.1369 10.3467 75.4605 10.1605 75.9228 10.0054C76.4159 9.85029 76.9244 9.72619 77.4483 9.63312C78.003 9.54004 78.4345 9.49351 78.7427 9.49351C79.7597 9.49351 80.2682 9.58658 80.2682 9.77273C80.2682 9.89682 80.037 10.1916 79.5748 10.6569C78.8043 11.4015 77.8951 12.3323 76.8473 13.4491C75.8303 14.535 74.7825 15.7139 73.7038 16.9859C74.5976 17.11 75.4143 17.3427 76.1539 17.684C76.9244 18.0253 77.4791 18.4596 77.8181 18.987C77.9414 19.1421 78.003 19.3283 78.003 19.5455C78.003 19.7937 77.926 19.9177 77.7719 19.9177C77.6486 19.9177 77.5099 19.8402 77.3558 19.6851C76.7086 19.0336 75.63 18.7078 74.1199 18.7078C73.8117 18.7078 73.4881 18.7233 73.1491 18.7543C72.8409 18.7853 72.5173 18.8319 72.1783 18.8939C71.1305 20.259 70.1751 21.6241 69.3122 22.9892C68.4493 24.3543 67.8329 25.6263 67.4631 26.8052C67.2781 27.3636 67.1857 27.8755 67.1857 28.3409C67.1857 28.8063 67.2936 29.1941 67.5093 29.5043C67.725 29.7835 68.0486 29.9232 68.4801 29.9232C68.7574 29.9232 69.0964 29.8456 69.4971 29.6905C70.0826 29.4733 70.7606 29.1165 71.5311 28.6201C72.3016 28.0927 73.072 27.5032 73.8425 26.8517C74.6438 26.2002 75.3834 25.5642 76.0614 24.9437C76.7703 24.3232 77.3558 23.7958 77.8181 23.3615C78.2804 22.9271 78.5423 22.6789 78.604 22.6169C78.6964 22.5238 78.7735 22.4773 78.8351 22.4773C78.9584 22.4773 79.02 22.5703 79.02 22.7565C79.02 22.9737 78.9276 23.1753 78.7427 23.3615C78.4345 23.6717 77.9568 24.1371 77.3096 24.7576C76.6932 25.3781 75.969 26.0761 75.1369 26.8517C74.3356 27.5963 73.4727 28.3099 72.5481 28.9924C71.6236 29.675 70.6836 30.2334 69.7282 30.6677C68.8037 31.1331 67.9099 31.3658 67.047 31.3658Z" fill="white"/>
<path d="M88.5578 16.3344C88.1263 16.3344 87.8027 16.1948 87.587 15.9156C87.3713 15.6364 87.2634 15.3416 87.2634 15.0314C87.2634 14.4109 87.5562 13.8059 88.1417 13.2164C88.7273 12.596 89.3436 12.2857 89.9908 12.2857C90.4223 12.2857 90.7459 12.4253 90.9616 12.7045C91.1773 12.9838 91.2852 13.2785 91.2852 13.5887C91.2852 14.2403 90.9924 14.8608 90.4069 15.4502C89.8522 16.0397 89.2358 16.3344 88.5578 16.3344ZM81.4849 30.6212C80.2213 30.6212 79.3584 30.3575 78.8961 29.8301C78.4647 29.2716 78.249 28.6512 78.249 27.9686C78.249 27.4102 78.3414 26.8828 78.5263 26.3864C78.7112 25.8589 78.8653 25.4867 78.9886 25.2695C79.1735 24.9592 79.4201 24.6025 79.7283 24.1991C80.0673 23.7958 80.4371 23.3615 80.8377 22.8961C80.2214 23.4235 79.6358 23.9354 79.0811 24.4318C78.5571 24.9282 78.1257 25.3005 77.7867 25.5487C77.6942 25.6418 77.6018 25.6883 77.5093 25.6883C77.386 25.6883 77.3244 25.6108 77.3244 25.4556C77.3244 25.2074 77.4939 24.9592 77.8329 24.711C78.6342 24.0285 79.4047 23.2839 80.1443 22.4773C80.9148 21.6706 81.639 20.926 82.317 20.2435C82.995 19.5299 83.596 19.0335 84.1199 18.7543C84.6746 18.4441 85.1215 18.2424 85.4605 18.1493C85.7995 18.0563 86.0769 18.0097 86.2926 18.0097C86.6316 18.0097 86.8782 18.0718 87.0323 18.1959C87.1863 18.289 87.2172 18.3975 87.1247 18.5216C86.6008 19.0491 86.0769 19.7316 85.553 20.5693C85.0599 21.3759 84.5976 22.2291 84.1661 23.1288C83.7347 24.0285 83.3803 24.8817 83.1029 25.6883C82.8563 26.4949 82.7331 27.1775 82.7331 27.7359C82.7331 28.5115 83.0412 28.8993 83.6576 28.8993C84.2432 28.8993 84.9982 28.6356 85.9228 28.1082C86.8782 27.5498 87.8644 26.8517 88.8814 26.0141C89.9292 25.1764 90.9 24.3543 91.7937 23.5476C91.917 23.4235 92.0249 23.3615 92.1173 23.3615C92.2714 23.3615 92.3485 23.439 92.3485 23.5942C92.3793 23.7493 92.3485 23.8579 92.256 23.9199C91.239 24.8817 90.0833 25.89 88.7889 26.9448C87.5253 27.9686 86.2464 28.8373 84.952 29.5509C83.6884 30.2644 82.5327 30.6212 81.4849 30.6212Z" fill="white"/>
<path d="M92.1354 30.8074C91.8272 30.8074 91.4574 30.7298 91.0259 30.5747C90.5944 30.4506 90.163 30.2024 89.7315 29.8301C90.0705 29.3647 90.5636 28.7442 91.2108 27.9686C91.8272 27.162 92.4898 26.2778 93.1986 25.316C93.9074 24.3543 94.57 23.3925 95.1864 22.4307C94.6933 22.9271 94.154 23.4545 93.5684 24.013C92.9829 24.5714 92.3973 25.0833 91.8118 25.5487C91.6885 25.6728 91.5498 25.7348 91.3957 25.7348C91.2725 25.7348 91.2108 25.6728 91.2108 25.5487C91.2108 25.3936 91.3341 25.2074 91.5806 24.9903C92.4436 24.2146 93.3989 23.3304 94.4468 22.3377C95.5254 21.3139 96.3113 20.2745 96.8044 19.2197C96.9585 18.8474 97.0355 18.5061 97.0355 18.1959C97.0355 17.7926 96.9585 17.5444 96.8044 17.4513C96.6811 17.3582 96.6195 17.2341 96.6195 17.079C96.6195 16.7998 96.7582 16.6602 97.0355 16.6602C97.1896 16.6602 97.3129 16.6912 97.4054 16.7532C97.7444 16.9084 98.068 17.2031 98.3761 17.6374C98.6843 18.0718 98.8384 18.7233 98.8384 19.592C98.8384 20.0884 98.7768 20.6623 98.6535 21.3139C98.5302 21.9343 98.3145 22.6479 98.0063 23.4545C98.4686 22.8341 98.9309 22.2291 99.3932 21.6396C99.8862 21.0501 100.333 20.5227 100.734 20.0574C101.566 19.0956 102.398 18.4131 103.23 18.0097C104.093 17.5754 104.863 17.3582 105.541 17.3582C106.343 17.3582 106.99 17.5909 107.483 18.0563C107.976 18.5216 108.223 19.1266 108.223 19.8712C108.223 20.4607 108.069 21.0657 107.76 21.6861C107.668 21.9343 107.452 22.3221 107.113 22.8496C106.774 23.346 106.404 23.8889 106.004 24.4784C105.603 25.0678 105.233 25.5952 104.894 26.0606C104.494 26.557 104.216 26.9913 104.062 27.3636C103.908 27.7049 103.831 27.9841 103.831 28.2013C103.831 28.5115 104.001 28.6667 104.34 28.6667C104.771 28.6667 105.372 28.434 106.142 27.9686C106.605 27.6894 107.129 27.3171 107.714 26.8517C108.331 26.3553 108.931 25.8589 109.517 25.3626C110.133 24.8351 110.627 24.4008 110.996 24.0595C111.12 23.9354 111.227 23.8734 111.32 23.8734C111.443 23.8734 111.505 23.9509 111.505 24.1061C111.505 24.2922 111.428 24.4628 111.274 24.618C110.349 25.4867 109.271 26.4329 108.038 27.4567C106.836 28.4805 105.649 29.2716 104.478 29.8301C103.523 30.2955 102.645 30.5281 101.843 30.5281C101.165 30.5281 100.626 30.3575 100.225 30.0162C99.8246 29.6439 99.6243 29.1165 99.6243 28.434C99.6243 27.9376 99.7476 27.3481 99.9941 26.6656C100.302 25.8279 100.734 24.9903 101.288 24.1526C101.874 23.3149 102.475 22.5238 103.091 21.7792C103.739 21.0036 104.293 20.3521 104.756 19.8247C105.156 19.3903 105.357 19.018 105.357 18.7078C105.357 18.4286 105.172 18.289 104.802 18.289C104.432 18.289 103.877 18.5061 103.138 18.9405C102.429 19.3438 101.628 20.0108 100.734 20.9416C99.4702 22.2756 98.3607 23.7183 97.4054 25.2695C96.45 26.8207 95.3559 28.2789 94.1232 29.6439C93.4452 30.4196 92.7826 30.8074 92.1354 30.8074Z" fill="white"/>
<path d="M108.013 43C106.133 43 104.577 42.7828 103.344 42.3485C102.111 41.9141 101.125 41.3247 100.385 40.5801C99.8921 40.0527 99.4299 39.3546 98.9984 38.4859C98.5669 37.6483 98.3512 36.9347 98.3512 36.3452C98.3512 36.1281 98.3974 36.0195 98.4899 36.0195C98.7056 36.0195 98.8443 36.1436 98.906 36.3918C98.906 36.4848 99.0138 36.8416 99.2295 37.4621C99.4145 38.0826 99.7689 38.7652 100.293 39.5097C100.817 40.2543 101.587 40.9058 102.604 41.4643C103.621 42.0227 104.946 42.3019 106.58 42.3019C108.521 42.3019 110.263 41.8366 111.804 40.9058C113.344 40.0061 114.716 38.8117 115.918 37.3225C117.151 35.8644 118.275 34.2666 119.292 32.5292C120.309 30.7918 121.28 29.0855 122.205 27.4102C123.129 25.7348 124.069 24.2612 125.025 22.9892C124.624 23.4235 124.116 23.9664 123.499 24.618C122.914 25.2385 122.282 25.8745 121.604 26.526C120.926 27.1775 120.279 27.767 119.662 28.2944C119.046 28.8218 118.537 29.2096 118.137 29.4578C117.459 29.8611 116.812 30.1558 116.195 30.342C115.61 30.5281 115.07 30.6212 114.577 30.6212C113.622 30.6212 112.882 30.3265 112.358 29.737C111.834 29.1165 111.572 28.3254 111.572 27.3636C111.572 26.4639 111.804 25.4711 112.266 24.3853C112.759 23.2994 113.529 22.1981 114.577 21.0812C115.656 19.9022 116.996 18.956 118.599 18.2424C120.202 17.4978 121.727 17.1255 123.176 17.1255C123.699 17.1255 124.208 17.1876 124.701 17.3117C125.194 17.4048 125.641 17.5754 126.042 17.8236C126.596 18.1649 126.997 18.4906 127.244 18.8009C127.521 19.0801 127.721 19.4214 127.845 19.8247C128.03 19.8247 128.322 19.9177 128.723 20.1039C129.124 20.259 129.493 20.4607 129.832 20.7089C130.171 20.926 130.341 21.1587 130.341 21.4069C130.341 21.531 130.218 21.6706 129.971 21.8258C129.355 22.136 128.661 22.8806 127.891 24.0595C127.12 25.2074 126.257 26.588 125.302 28.2013C124.377 29.7835 123.33 31.4278 122.159 33.1342C121.018 34.8716 119.739 36.4848 118.322 37.974C116.904 39.4632 115.332 40.6732 113.606 41.6039C111.911 42.5346 110.047 43 108.013 43ZM115.872 29.4113C116.488 29.4113 117.243 29.101 118.137 28.4805C118.815 28.0152 119.554 27.4412 120.356 26.7587C121.157 26.0451 121.943 25.3005 122.713 24.5249C123.484 23.7493 124.146 23.0357 124.701 22.3842C125.718 21.2053 126.227 20.2435 126.227 19.4989C126.227 18.8784 125.857 18.5682 125.117 18.5682C124.377 18.5682 123.36 18.925 122.066 19.6385C121.326 20.0418 120.541 20.6158 119.708 21.3604C118.876 22.105 118.091 22.9116 117.351 23.7803C116.642 24.649 116.072 25.4556 115.64 26.2002C115.147 27.0999 114.901 27.829 114.901 28.3874C114.901 29.07 115.224 29.4113 115.872 29.4113Z" fill="white"/>
<path d="M157.052 32.1104C156.035 32.1414 154.91 32.0483 153.677 31.8312C152.444 31.645 151.242 31.3038 150.071 30.8074C148.9 30.311 147.883 29.6594 147.02 28.8528C146.157 28.0462 145.572 27.0534 145.263 25.8745C146.373 26.8672 147.883 27.5963 149.794 28.0617C151.705 28.496 153.646 28.7132 155.618 28.7132C158.238 28.7132 160.519 28.4185 162.46 27.829C163.015 27.6739 163.662 27.4257 164.402 27.0844C165.141 26.7121 165.866 26.2933 166.575 25.8279C167.283 25.3315 167.869 24.7886 168.331 24.1991C168.824 23.6097 169.071 23.0047 169.071 22.3842C169.071 21.9499 168.932 21.531 168.655 21.1277C168.377 20.7244 167.931 20.3211 167.314 19.9177C166.944 19.7006 166.405 19.4679 165.696 19.2197C165.018 18.9405 164.279 18.6302 163.477 18.289C162.676 17.9167 161.921 17.4978 161.212 17.0325C160.503 16.5361 159.933 15.9621 159.502 15.3106C159.101 14.6281 158.947 13.8525 159.039 12.9838C159.193 11.7118 159.764 10.4553 160.75 9.21428C161.767 7.94228 163.03 6.76335 164.54 5.67749C166.081 4.56061 167.73 3.58333 169.487 2.74567C171.274 1.90801 173.016 1.25649 174.711 0.791124C176.436 0.294732 177.962 0.0465362 179.287 0.0465362C180.643 0.0465362 181.799 0.310244 182.754 0.83766C183.74 1.36508 184.157 2.26479 184.002 3.5368C183.941 4.09524 183.556 4.76227 182.847 5.53788C182.169 6.31349 181.352 7.16667 180.397 8.0974C179.441 9.02814 178.486 10.0054 177.531 11.0292C176.606 12.053 175.835 13.0924 175.219 14.1472C174.634 15.202 174.372 16.2258 174.433 17.2186C173.94 16.8153 173.57 16.3654 173.324 15.869C173.108 15.3727 173 14.8607 173 14.3333C173 13.5887 173.154 12.8286 173.462 12.053C173.771 11.2774 174.156 10.5483 174.618 9.8658C175.08 9.15224 175.512 8.54726 175.913 8.05086C176.621 7.18218 177.423 6.36003 178.316 5.58441C179.21 4.8088 180.119 4.09524 181.044 3.44372C180.766 3.0404 180.289 2.83874 179.611 2.83874C178.902 2.83874 178.101 2.99387 177.207 3.30411C176.344 3.61436 175.527 3.95563 174.757 4.32792C174.017 4.66919 173.493 4.9329 173.185 5.11905C171.86 5.83261 170.519 6.63925 169.163 7.53896C167.838 8.43867 166.605 9.35389 165.465 10.2846C164.356 11.2154 163.446 12.0841 162.738 12.8907C162.06 13.6663 161.69 14.3178 161.628 14.8452C161.566 15.4968 161.844 16.0552 162.46 16.5206C163.077 16.9549 163.878 17.3582 164.864 17.7305C165.85 18.1028 166.821 18.5372 167.776 19.0336C169.071 19.6851 170.011 20.4297 170.596 21.2673C171.182 22.105 171.475 22.9737 171.475 23.8734C171.475 24.9903 171.059 26.0916 170.227 27.1775C169.394 28.2323 168.27 29.1165 166.852 29.8301C165.588 30.4506 164.263 30.9315 162.876 31.2727C161.52 31.614 160.303 31.8312 159.224 31.9242C158.176 32.0483 157.452 32.1104 157.052 32.1104Z" fill="white"/>
<path d="M177.349 31.3658C176.363 31.3658 175.608 31.0711 175.084 30.4816C174.56 29.8921 174.298 29.07 174.298 28.0152C174.298 27.0224 174.56 25.8589 175.084 24.5249L175.176 24.2922L174.344 25.0833C174.221 25.2074 174.082 25.2695 173.928 25.2695C173.774 25.2695 173.697 25.2074 173.697 25.0833C173.697 24.9282 173.805 24.7421 174.021 24.5249C174.822 23.8113 175.639 23.0667 176.471 22.2911C177.334 21.4845 178.058 20.7244 178.644 20.0108C178.428 20.1039 178.197 20.1504 177.95 20.1504C177.704 20.1504 177.519 20.0884 177.395 19.9643C177.18 19.8092 177.072 19.5299 177.072 19.1266C177.072 18.7854 177.226 18.4286 177.534 18.0563C177.873 17.684 178.551 17.3582 179.568 17.079C179.784 17.017 180 16.9704 180.215 16.9394C180.462 16.9084 180.693 16.8773 180.909 16.8463C181.895 15.4502 182.758 14.1627 183.498 12.9838C184.237 11.7738 184.823 10.9672 185.254 10.5639C185.439 10.3467 185.763 10.1605 186.225 10.0054C186.718 9.85029 187.227 9.72619 187.75 9.63312C188.305 9.54004 188.737 9.49351 189.045 9.49351C190.062 9.49351 190.57 9.58658 190.57 9.77273C190.57 9.89682 190.339 10.1916 189.877 10.6569C189.106 11.4015 188.197 12.3323 187.15 13.4491C186.132 14.535 185.085 15.7139 184.006 16.9859C184.9 17.11 185.716 17.3427 186.456 17.684C187.227 18.0253 187.781 18.4596 188.12 18.987C188.244 19.1421 188.305 19.3283 188.305 19.5455C188.305 19.7937 188.228 19.9177 188.074 19.9177C187.951 19.9177 187.812 19.8402 187.658 19.6851C187.011 19.0336 185.932 18.7078 184.422 18.7078C184.114 18.7078 183.79 18.7233 183.451 18.7543C183.143 18.7853 182.82 18.8319 182.48 18.8939C181.433 20.259 180.477 21.6241 179.614 22.9892C178.751 24.3543 178.135 25.6263 177.765 26.8052C177.58 27.3636 177.488 27.8755 177.488 28.3409C177.488 28.8063 177.596 29.1941 177.811 29.5043C178.027 29.7835 178.351 29.9232 178.782 29.9232C179.06 29.9232 179.399 29.8456 179.799 29.6905C180.385 29.4733 181.063 29.1165 181.833 28.6201C182.604 28.0927 183.374 27.5032 184.145 26.8517C184.946 26.2002 185.686 25.5642 186.364 24.9437C187.072 24.3232 187.658 23.7958 188.12 23.3615C188.583 22.9271 188.845 22.6789 188.906 22.6169C188.999 22.5238 189.076 22.4773 189.137 22.4773C189.261 22.4773 189.322 22.5703 189.322 22.7565C189.322 22.9737 189.23 23.1753 189.045 23.3615C188.737 23.6717 188.259 24.1371 187.612 24.7576C186.995 25.3781 186.271 26.0761 185.439 26.8517C184.638 27.5963 183.775 28.3099 182.85 28.9924C181.926 29.675 180.986 30.2334 180.03 30.6677C179.106 31.1331 178.212 31.3658 177.349 31.3658Z" fill="white"/>
<path d="M191.094 30.6212C190.138 30.6212 189.399 30.3265 188.875 29.737C188.351 29.1165 188.089 28.3254 188.089 27.3636C188.089 26.4639 188.32 25.4711 188.782 24.3853C189.275 23.2994 190.046 22.1981 191.094 21.0812C192.172 19.9022 193.513 18.956 195.116 18.2424C196.718 17.4978 198.244 17.1255 199.692 17.1255C200.863 17.1255 201.865 17.3892 202.697 17.9167C203.529 18.4131 204.084 19.0491 204.361 19.8247C204.7 19.8247 205.116 19.9177 205.609 20.1039C206.133 20.29 206.395 20.6313 206.395 21.1277C206.395 21.469 206.226 21.8568 205.887 22.2911C205.671 22.6014 205.286 23.0667 204.731 23.6872C204.207 24.3077 203.714 24.9747 203.252 25.6883C202.882 26.2468 202.589 26.7742 202.373 27.2706C202.158 27.7359 202.05 28.1392 202.05 28.4805C202.05 28.9459 202.281 29.1786 202.743 29.1786C203.267 29.1786 204.053 28.8838 205.101 28.2944C206.241 27.6429 207.335 26.8983 208.383 26.0606C209.431 25.2229 210.247 24.5559 210.833 24.0595C210.987 23.9354 211.095 23.8734 211.157 23.8734C211.28 23.8734 211.341 23.9509 211.341 24.1061C211.341 24.2922 211.264 24.4628 211.11 24.618C210.833 24.8662 210.294 25.3315 209.492 26.0141C208.691 26.6966 207.767 27.4102 206.719 28.1548C205.702 28.8994 204.7 29.5043 203.714 29.9697C203.221 30.1869 202.759 30.3575 202.327 30.4816C201.926 30.5747 201.557 30.6212 201.218 30.6212C200.386 30.6212 199.754 30.3885 199.322 29.9232C198.891 29.4268 198.675 28.7908 198.675 28.0152C198.675 27.7049 198.721 27.3791 198.814 27.0379C198.906 26.6966 199.014 26.3553 199.137 26.0141L199.461 25.2229C198.66 26.2157 197.858 27.0534 197.057 27.7359C196.256 28.3874 195.455 28.9614 194.653 29.4578C193.975 29.8611 193.328 30.1558 192.712 30.342C192.126 30.5281 191.587 30.6212 191.094 30.6212ZM192.527 29.4113C193.081 29.4113 193.883 29.0855 194.931 28.434C195.978 27.7514 197.196 26.7121 198.583 25.316C198.768 25.1299 199.107 24.8041 199.6 24.3387C200.124 23.8424 200.678 23.2994 201.264 22.71C201.849 22.0895 202.342 21.4845 202.743 20.895C203.175 20.2745 203.39 19.7626 203.39 19.3593C203.39 18.7698 202.882 18.4751 201.865 18.4751C200.971 18.4751 199.892 18.8319 198.629 19.5455C197.396 20.228 196.21 21.2518 195.069 22.6169C193.898 24.013 193.035 25.2229 192.481 26.2468C191.957 27.2395 191.695 27.9996 191.695 28.5271C191.695 29.1165 191.972 29.4113 192.527 29.4113Z" fill="white"/>
<path d="M218.857 30.6212C217.532 30.6212 216.639 30.373 216.176 29.8766C215.714 29.3492 215.483 28.7753 215.483 28.1548C215.483 27.3481 215.791 26.4949 216.407 25.5952C216.777 25.0678 217.193 24.4784 217.656 23.8268C218.118 23.1443 218.549 22.5083 218.95 21.9188C219.351 21.3294 219.628 20.9105 219.782 20.6623C219.998 20.3521 220.121 20.1504 220.152 20.0574C220.214 19.9333 220.244 19.8092 220.244 19.6851C220.244 19.4989 220.121 19.3283 219.874 19.1732C219.659 18.987 219.289 18.8939 218.765 18.8939C218.611 18.8939 218.472 18.9095 218.349 18.9405C218.257 18.9405 218.149 18.9405 218.025 18.9405C217.779 18.9405 217.64 18.925 217.609 18.8939L217.471 19.0801C216.608 20.228 215.683 21.3604 214.697 22.4773C213.711 23.5631 212.632 24.5714 211.461 25.5022C211.338 25.5952 211.245 25.6418 211.184 25.6418C211.06 25.6418 210.999 25.5797 210.999 25.4556C210.999 25.2074 211.184 24.9282 211.553 24.618C212.509 23.8113 213.449 22.9116 214.373 21.9188C215.298 20.895 216.13 19.8247 216.87 18.7078C216.592 18.5216 216.454 18.1494 216.454 17.5909C216.454 16.7532 216.716 15.8535 217.24 14.8918C217.609 14.2403 218.01 13.7594 218.441 13.4491C218.904 13.1079 219.304 12.9372 219.643 12.9372C220.291 12.9372 220.614 13.325 220.614 14.1006C220.614 14.597 220.429 15.2175 220.059 15.9621C219.905 16.3344 219.597 16.8153 219.135 17.4048C218.703 17.9632 218.272 18.3665 217.84 18.6147C218.488 18.3975 219.304 18.2579 220.291 18.1959C221.308 18.1028 222.155 18.0563 222.833 18.0563C223.234 18.0563 223.727 18.1804 224.312 18.4286C224.898 18.6457 225.191 19.0491 225.191 19.6385C225.191 20.0418 225.006 20.4762 224.636 20.9416C224.544 21.0657 224.297 21.3604 223.896 21.8258C223.496 22.2911 223.049 22.8496 222.556 23.5011C222.093 24.1526 221.662 24.8041 221.261 25.4556C220.861 26.0451 220.537 26.588 220.291 27.0844C220.075 27.5808 219.967 27.9996 219.967 28.3409C219.967 28.8373 220.244 29.0855 220.799 29.0855C221.446 29.0855 222.309 28.7753 223.388 28.1548C224.466 27.5343 225.622 26.7431 226.855 25.7814C228.118 24.7886 229.274 23.7648 230.322 22.71C230.445 22.5859 230.553 22.5238 230.646 22.5238C230.769 22.5238 230.831 22.6014 230.831 22.7565C230.831 22.9426 230.753 23.1133 230.599 23.2684C229.521 24.3543 228.319 25.4711 226.994 26.619C225.699 27.7359 224.343 28.6822 222.926 29.4578C221.539 30.2334 220.183 30.6212 218.857 30.6212Z" fill="white"/>
<path d="M233.065 31.3658C232.078 31.3658 231.323 31.0711 230.799 30.4816C230.276 29.8921 230.014 29.07 230.014 28.0152C230.014 27.0224 230.276 25.8589 230.799 24.5249L230.892 24.2922L230.06 25.0833C229.937 25.2074 229.798 25.2695 229.644 25.2695C229.49 25.2695 229.413 25.2074 229.413 25.0833C229.413 24.9282 229.52 24.7421 229.736 24.5249C230.537 23.8113 231.354 23.0667 232.186 22.2911C233.049 21.4845 233.773 20.7244 234.359 20.0108C234.143 20.1039 233.912 20.1504 233.666 20.1504C233.419 20.1504 233.234 20.0884 233.111 19.9643C232.895 19.8092 232.787 19.5299 232.787 19.1266C232.787 18.7854 232.941 18.4286 233.25 18.0563C233.589 17.684 234.267 17.3582 235.284 17.079C235.499 17.017 235.715 16.9704 235.931 16.9394C236.177 16.9084 236.408 16.8773 236.624 16.8463C237.61 15.4502 238.473 14.1627 239.213 12.9838C239.953 11.7738 240.538 10.9672 240.97 10.5639C241.154 10.3467 241.478 10.1605 241.94 10.0054C242.433 9.85029 242.942 9.72619 243.466 9.63312C244.021 9.54004 244.452 9.49351 244.76 9.49351C245.777 9.49351 246.286 9.58658 246.286 9.77273C246.286 9.89682 246.055 10.1916 245.592 10.6569C244.822 11.4015 243.913 12.3323 242.865 13.4491C241.848 14.535 240.8 15.7139 239.721 16.9859C240.615 17.11 241.432 17.3427 242.171 17.684C242.942 18.0253 243.497 18.4596 243.836 18.987C243.959 19.1421 244.021 19.3283 244.021 19.5455C244.021 19.7937 243.944 19.9177 243.789 19.9177C243.666 19.9177 243.528 19.8402 243.373 19.6851C242.726 19.0336 241.648 18.7078 240.137 18.7078C239.829 18.7078 239.506 18.7233 239.167 18.7543C238.859 18.7853 238.535 18.8319 238.196 18.8939C237.148 20.259 236.193 21.6241 235.33 22.9892C234.467 24.3543 233.85 25.6263 233.481 26.8052C233.296 27.3636 233.203 27.8755 233.203 28.3409C233.203 28.8063 233.311 29.1941 233.527 29.5043C233.743 29.7835 234.066 29.9232 234.498 29.9232C234.775 29.9232 235.114 29.8456 235.515 29.6905C236.1 29.4733 236.778 29.1165 237.549 28.6201C238.319 28.0927 239.09 27.5032 239.86 26.8517C240.661 26.2002 241.401 25.5642 242.079 24.9437C242.788 24.3232 243.373 23.7958 243.836 23.3615C244.298 22.9271 244.56 22.6789 244.622 22.6169C244.714 22.5238 244.791 22.4773 244.853 22.4773C244.976 22.4773 245.038 22.5703 245.038 22.7565C245.038 22.9737 244.945 23.1753 244.76 23.3615C244.452 23.6717 243.974 24.1371 243.327 24.7576C242.711 25.3781 241.987 26.0761 241.154 26.8517C240.353 27.5963 239.49 28.3099 238.566 28.9924C237.641 29.675 236.701 30.2334 235.746 30.6677C234.821 31.1331 233.928 31.3658 233.065 31.3658Z" fill="white"/>
<path d="M246.485 30.5747C246.085 30.5747 245.777 30.4661 245.561 30.2489C245.222 29.9697 245.052 29.5819 245.052 29.0855C245.052 28.3719 245.33 27.7204 245.885 27.1309C246.532 26.3864 247.271 26.0141 248.103 26.0141C248.442 26.0141 248.751 26.1071 249.028 26.2933C249.367 26.5725 249.537 26.9603 249.537 27.4567C249.537 28.1392 249.259 28.7908 248.704 29.4113C248.026 30.1869 247.287 30.5747 246.485 30.5747Z" fill="white"/>
<path d="M257.217 30.5747C256.817 30.5747 256.508 30.4661 256.293 30.2489C255.954 29.9697 255.784 29.5819 255.784 29.0855C255.784 28.3719 256.062 27.7204 256.616 27.1309C257.263 26.3864 258.003 26.0141 258.835 26.0141C259.174 26.0141 259.482 26.1071 259.76 26.2933C260.099 26.5725 260.268 26.9603 260.268 27.4567C260.268 28.1392 259.991 28.7908 259.436 29.4113C258.758 30.1869 258.019 30.5747 257.217 30.5747Z" fill="white"/>
<path d="M267.949 30.5747C267.548 30.5747 267.24 30.4661 267.024 30.2489C266.685 29.9697 266.516 29.5819 266.516 29.0855C266.516 28.3719 266.793 27.7204 267.348 27.1309C267.995 26.3864 268.735 26.0141 269.567 26.0141C269.906 26.0141 270.214 26.1071 270.491 26.2933C270.83 26.5725 271 26.9603 271 27.4567C271 28.1392 270.723 28.7908 270.168 29.4113C269.49 30.1869 268.75 30.5747 267.949 30.5747Z" fill="white"/>
</svg>
